<svg xmlns="http://www.w3.org/2000/svg" xmlns:xlink="http://www.w3.org/1999/xlink" viewBox="0 0 49 76" fill="#fff" fill-rule="evenodd" stroke="#000" stroke-linecap="round" stroke-linejoin="round"><use xlink:href="#AJ" x=".5" y=".5"/><defs><linearGradient id="A" x1="-6.24%" y1="61.65%" x2="103.38%" y2="32.89%"><stop offset="1.3%" stop-color="#69893a"/><stop offset="49.8%" stop-color="#77a03f"/><stop offset="100%" stop-color="#8fa93c"/></linearGradient><linearGradient id="B" x1="99.85%" y1="50.00%" x2="-0.14%" y2="50.00%"><stop offset="1.3%" stop-color="#69893a"/><stop offset="24.8%" stop-color="#77a03f"/><stop offset="51.7%" stop-color="#8fa93c"/><stop offset="100%" stop-color="#718135"/></linearGradient><linearGradient id="C" x1="102.96%" y1="901.69%" x2="-1.97%" y2="-802.51%"><stop offset="1.3%" stop-color="#69893a"/><stop offset="49.8%" stop-color="#77a03f"/><stop offset="100%" stop-color="#8fa93c"/></linearGradient><linearGradient id="D" x1="98.52%" y1="-2067.00%" x2="0.43%" y2="2169.45%"><stop offset="1.3%" stop-color="#69893a"/><stop offset="49.8%" stop-color="#77a03f"/><stop offset="100%" stop-color="#8fa93c"/></linearGradient><linearGradient id="E" y2="50.00%" x2="100.00%" y1="50.00%" x1="0.00%"><stop stop-color="#6f984f" offset="15.7%"/><stop stop-color="#587836" offset="85.6%"/></linearGradient><linearGradient id="F" x1="-3.67%" y1="72.37%" x2="101.07%" y2="25.90%"><stop offset="1.3%" stop-color="#948b52"/></linearGradient><linearGradient id="G" x1="-34.32%" y1="56.56%" x2="135.32%" y2="43.89%"><stop offset="1.3%" stop-color="#948b52"/></linearGradient><linearGradient id="H" x1="101.92%" y1="692.18%" x2="1.13%" y2="-586.38%"><stop offset="1.3%" stop-color="#948b52"/></linearGradient><linearGradient id="I" x1="121.15%" y1="201.27%" x2="-19.95%" y2="-99.92%"><stop offset="1.3%" stop-color="#948b52"/></linearGradient><linearGradient id="J" x1="10.57%" y1="207.70%" x2="88.59%" y2="-104.27%"><stop offset="0%" stop-color="#98c068"/><stop offset="100%" stop-color="#6f984f"/></linearGradient><linearGradient id="K" x1="-0.00%" y1="50.00%" x2="100.01%" y2="50.00%"><stop offset="0%" stop-color="#889451"/><stop offset="41.2%" stop-color="#8b8958"/><stop offset="74.8%" stop-color="#b3bb6c"/><stop offset="100%" stop-color="#889451"/></linearGradient><linearGradient id="L" x1="0.01%" y1="50.02%" x2="100.01%" y2="50.02%"><stop offset="0%" stop-color="#a17f63"/><stop offset="24.9%" stop-color="#9f8974"/><stop offset="50.9%" stop-color="#a09e7e"/><stop offset="69.1%" stop-color="#bdc799"/><stop offset="100%" stop-color="#808859"/></linearGradient><linearGradient id="M" x1="2.17%" y1="60.74%" x2="102.59%" y2="40.52%"><stop offset=".6%" stop-color="#675544"/><stop offset="40%" stop-color="#9b9269"/><stop offset="93.2%" stop-color="#daaba1"/></linearGradient><linearGradient id="N" x1="1.93%" y1="66.20%" x2="100.26%" y2="30.62%"><stop offset=".6%" stop-color="#675544"/><stop offset="40%" stop-color="#9b9269"/><stop offset="93.2%" stop-color="#daaba1"/></linearGradient><linearGradient id="O" x1="-0.02%" y1="50.04%" x2="99.99%" y2="50.04%"><stop offset=".6%" stop-color="#5f5541"/><stop offset="100%" stop-color="#575133"/></linearGradient><linearGradient id="P" x1="-0.02%" y1="50.02%" x2="100.00%" y2="50.02%"><stop offset=".6%" stop-color="#baa471"/><stop offset="100%" stop-color="#e0c3a3"/></linearGradient><linearGradient id="Q" x1="0.39%" y1="70.77%" x2="100.47%" y2="38.98%"><stop offset=".6%" stop-color="#5f5541"/><stop offset="100%" stop-color="#575133"/></linearGradient><linearGradient id="R" x1="0.52%" y1="76.90%" x2="100.57%" y2="36.04%"><stop offset=".6%" stop-color="#baa471"/><stop offset="100%" stop-color="#e0c3a3"/></linearGradient><linearGradient id="S" x1="0.76%" y1="74.32%" x2="99.47%" y2="28.06%"><stop offset=".6%" stop-color="#5f5541"/><stop offset="100%" stop-color="#575133"/></linearGradient><linearGradient id="T" x1="0.76%" y1="82.83%" x2="99.52%" y2="14.62%"><stop offset=".6%" stop-color="#baa471"/><stop offset="100%" stop-color="#e0c3a3"/></linearGradient><linearGradient id="U" x1="-0.02%" y1="50.00%" x2="100.00%" y2="50.00%"><stop offset="0%" stop-color="#a17f63"/><stop offset="24.9%" stop-color="#9f8974"/><stop offset="50.9%" stop-color="#a09e7e"/><stop offset="69.1%" stop-color="#bdc799"/><stop offset="100%" stop-color="#808859"/></linearGradient><linearGradient id="V" x1="-0.00%" y1="50.01%" x2="100.00%" y2="50.01%"><stop offset=".6%" stop-color="#675544"/><stop offset="40%" stop-color="#9b9269"/><stop offset="93.2%" stop-color="#daaba1"/></linearGradient><linearGradient id="W" x1="0.00%" y1="49.96%" x2="100.00%" y2="49.96%"><stop offset=".6%" stop-color="#675544"/><stop offset="40%" stop-color="#9b9269"/><stop offset="93.2%" stop-color="#daaba1"/></linearGradient><linearGradient id="X" x1="-0.00%" y1="50.00%" x2="100.00%" y2="50.00%"><stop offset=".6%" stop-color="#5f5541"/><stop offset="100%" stop-color="#575133"/></linearGradient><linearGradient id="Y" x1="0.00%" y1="50.05%" x2="100.00%" y2="50.05%"><stop offset=".6%" stop-color="#baa471"/><stop offset="100%" stop-color="#e0c3a3"/></linearGradient><linearGradient id="Z" x1="-0.00%" y1="49.98%" x2="100.00%" y2="49.98%"><stop offset=".6%" stop-color="#5f5541"/><stop offset="100%" stop-color="#575133"/></linearGradient><linearGradient id="a" x1="0.00%" y1="49.99%" x2="100.00%" y2="49.99%"><stop offset=".6%" stop-color="#5f5541"/><stop offset="100%" stop-color="#575133"/></linearGradient><linearGradient id="b" x1="63.54%" y1="96.42%" x2="32.94%" y2="2.39%"><stop offset="1.3%" stop-color="#af9f4f"/><stop offset="100%" stop-color="#8fa93c"/></linearGradient><linearGradient id="c" x1="82.86%" y1="103.21%" x2="19.42%" y2="-3.04%"><stop offset="1.3%" stop-color="#69893a"/><stop offset="49.8%" stop-color="#77a03f"/><stop offset="100%" stop-color="#8fa93c"/></linearGradient><linearGradient id="d" x1="102.06%" y1="172.01%" x2="-1.93%" y2="-69.75%"><stop offset="1.3%" stop-color="#948b52"/></linearGradient><linearGradient id="e" x1="119.02%" y1="82.87%" x2="-21.33%" y2="17.98%"><stop offset="1.3%" stop-color="#948b52"/></linearGradient><linearGradient id="f" x1="-31.88%" y1="83.83%" x2="117.34%" y2="11.48%"><stop offset="1.3%" stop-color="#948b52"/></linearGradient><linearGradient id="g" x1="36.44%" y1="54.89%" x2="58.84%" y2="45.72%"><stop offset="1.3%" stop-color="#948b52"/></linearGradient><linearGradient id="h" x1="0.00%" y1="50.00%" x2="100.00%" y2="50.00%"><stop offset="1.3%" stop-color="#69893a"/><stop offset="49.8%" stop-color="#77a03f"/><stop offset="100%" stop-color="#8fa93c"/></linearGradient><linearGradient id="i" x1="100.00%" y1="50.00%" x2="0.00%" y2="50.00%"><stop offset="1.3%" stop-color="#69893a"/><stop offset="24.8%" stop-color="#77a03f"/><stop offset="51.7%" stop-color="#8fa93c"/><stop offset="100%" stop-color="#718135"/></linearGradient><linearGradient id="j" x1="-0.00%" y1="50.00%" x2="100.00%" y2="50.00%"><stop offset="1.3%" stop-color="#69893a"/><stop offset="24.8%" stop-color="#77a03f"/><stop offset="51.7%" stop-color="#8fa93c"/><stop offset="100%" stop-color="#718135"/></linearGradient><linearGradient id="k" x1="125.49%" y1="-74.39%" x2="-10.91%" y2="173.30%"><stop offset="72.2%" stop-color="#87a74e"/><stop offset="86.3%" stop-color="#718135"/><stop offset="98.7%" stop-color="#617031"/></linearGradient><linearGradient id="l" x1="97.46%" y1="-94.87%" x2="14.83%" y2="195.60%"><stop offset="1.3%" stop-color="#69893a"/><stop offset="49.8%" stop-color="#77a03f"/><stop offset="100%" stop-color="#8fa93c"/></linearGradient><linearGradient id="m" y2="50.01%" x2="100.00%" y1="50.01%" x1="-0.00%"><stop stop-color="#69893a" offset="1.3%"/><stop stop-color="#77a03f" offset="49.8%"/><stop stop-color="#8fa93c" offset="100%"/></linearGradient><linearGradient id="n" x1="42.90%" y1="2.59%" x2="56.35%" y2="96.75%"><stop offset="1.3%" stop-color="#69893a"/><stop offset="49.8%" stop-color="#77a03f"/><stop offset="100%" stop-color="#8fa93c"/></linearGradient><linearGradient id="o" y2="50.01%" x2="100.04%" y1="50.01%" x1="0.02%"><stop stop-color="#87a74e" offset="72.2%"/><stop stop-color="#718135" offset="86.3%"/><stop stop-color="#617031" offset="98.7%"/></linearGradient><linearGradient id="p" x1="-156.32%" y1="52.41%" x2="217.75%" y2="47.74%"><stop offset="1.3%" stop-color="#69893a"/><stop offset="49.8%" stop-color="#77a03f"/><stop offset="100%" stop-color="#8fa93c"/></linearGradient><linearGradient id="q" x1="126.06%" y1="99.14%" x2="-16.99%" y2="0.75%"><stop offset="1.3%" stop-color="#bfb080"/><stop offset="100%" stop-color="#8fa93c"/></linearGradient><linearGradient id="r" x1="68.06%" y1="105.15%" x2="31.16%" y2="-4.89%"><stop offset="1.3%" stop-color="#69893a"/><stop offset="49.8%" stop-color="#77a03f"/><stop offset="100%" stop-color="#8fa93c"/></linearGradient><linearGradient id="s" x1="28.46%" y1="51.38%" x2="78.30%" y2="46.48%"><stop offset="72.2%" stop-color="#87a74e"/><stop offset="86.3%" stop-color="#718135"/><stop offset="98.7%" stop-color="#617031"/></linearGradient><linearGradient id="t" x1="113.18%" y1="70.63%" x2="-11.44%" y2="29.39%"><stop offset="1.3%" stop-color="#69893a"/><stop offset="49.8%" stop-color="#77a03f"/><stop offset="100%" stop-color="#8fa93c"/></linearGradient><linearGradient id="u" x1="86.09%" y1="102.88%" x2="13.33%" y2="-3.17%"><stop offset="1.3%" stop-color="#bfb080"/><stop offset="100%" stop-color="#8fa93c"/></linearGradient><linearGradient id="v" x1="31.40%" y1="109.48%" x2="68.67%" y2="-9.35%"><stop offset="1.3%" stop-color="#69893a"/><stop offset="49.8%" stop-color="#77a03f"/><stop offset="100%" stop-color="#8fa93c"/></linearGradient><linearGradient id="w" x1="72.47%" y1="85.87%" x2="22.76%" y2="11.78%"><stop offset="72.2%" stop-color="#87a74e"/><stop offset="86.3%" stop-color="#718135"/><stop offset="98.7%" stop-color="#617031"/></linearGradient><linearGradient id="x" x1="-11.54%" y1="68.09%" x2="106.58%" y2="24.65%"><stop offset="1.3%" stop-color="#69893a"/><stop offset="49.8%" stop-color="#77a03f"/><stop offset="100%" stop-color="#8fa93c"/></linearGradient><linearGradient id="y" x1="-8.89%" y1="186.31%" x2="109.66%" y2="-92.42%"><stop offset="1.3%" stop-color="#69893a"/><stop offset="49.8%" stop-color="#77a03f"/><stop offset="100%" stop-color="#8fa93c"/></linearGradient><linearGradient id="z" x1="-9.33%" y1="165.09%" x2="112.31%" y2="-70.60%"><stop offset="1.3%" stop-color="#69893a"/><stop offset="49.8%" stop-color="#77a03f"/><stop offset="100%" stop-color="#8fa93c"/></linearGradient><linearGradient id="AA" x1="88.70%" y1="-138.96%" x2="7.16%" y2="244.27%"><stop offset="1.3%" stop-color="#69893a"/><stop offset="49.8%" stop-color="#77a03f"/><stop offset="100%" stop-color="#8fa93c"/></linearGradient><linearGradient id="AB" x1="94.74%" y1="-389.06%" x2="2.16%" y2="500.78%"><stop offset="1.3%" stop-color="#69893a"/><stop offset="49.8%" stop-color="#77a03f"/><stop offset="100%" stop-color="#8fa93c"/></linearGradient><linearGradient id="AC" x1="-5.64%" y1="384.76%" x2="102.19%" y2="-290.42%"><stop offset="1.3%" stop-color="#69893a"/><stop offset="49.8%" stop-color="#77a03f"/><stop offset="100%" stop-color="#8fa93c"/></linearGradient><linearGradient id="AD" x1="-3.21%" y1="527.95%" x2="101.68%" y2="-434.93%"><stop offset="1.3%" stop-color="#69893a"/><stop offset="49.8%" stop-color="#77a03f"/><stop offset="100%" stop-color="#8fa93c"/></linearGradient><linearGradient id="AE" x1="119.85%" y1="96.46%" x2="-4.56%" y2="-6.19%"><stop offset="1.3%" stop-color="#948b52"/></linearGradient><linearGradient id="AF" x1="66.73%" y1="63.80%" x2="34.05%" y2="36.60%"><stop offset="1.3%" stop-color="#948b52"/></linearGradient><linearGradient id="AG" x1="-0.86%" y1="50.97%" x2="100.55%" y2="47.28%"><stop offset="1.3%" stop-color="#69893a"/><stop offset="49.8%" stop-color="#77a03f"/><stop offset="100%" stop-color="#8fa93c"/></linearGradient><linearGradient id="AH" x1="48.31%" y1="4.45%" x2="51.32%" y2="93.57%"><stop offset="14.3%" stop-color="#77a03f"/><stop offset="31.6%" stop-color="#87a74e"/><stop offset="74.5%" stop-color="#718135"/><stop offset="98.7%" stop-color="#617031"/></linearGradient><linearGradient id="AI" x1="-4.58%" y1="50.33%" x2="103.14%" y2="48.37%"><stop offset="1.3%" stop-color="#69893a"/><stop offset="49.8%" stop-color="#77a03f"/><stop offset="100%" stop-color="#8fa93c"/></linearGradient></defs><symbol id="AJ" overflow="visible"><g stroke="none" fill-rule="nonzero"><path d="M26.158 68.599c.199-1.169.111-12.689 9.854-15.694 1.969-.764 1.426-.533 2.834-.589s3.331-1.047 5.262-.858 3.805 1.812 3.763 2.175-2.508-1.253-4.893-1.347c-1.766-.07-4.554 1.419-6.139 1.75s-3.823 1.546-6.062 3.273c-3.646 2.811-3.852 11.341-3.852 11.341s-.497-.101-.768-.05z" fill="url(#A)"/><path d="M47.399 39.693c.021-.045.585-1.079-.077-1.852-.464-.541-.982-.818-1.391-1.159-1.097-.916-2.337-1.475-2.977-1.497-.855-.028-1.273-.117-1.885.185-.406.201-1.236.309-2.548 1.158s-4.671 2.827-6.539 6.49c-4.829 9.476-6.548 26.488-5.653 26.306s2.023-16.273 6.685-26.065c1.229-3.237 5.275-5.65 6.897-6.268s2.316-1.467 3.86-.694c.731.366 2.013 1.038 2.701 1.774.766.819.9 1.685.927 1.622z" fill="url(#B)"/><path d="M21.224 11.106C20.918 9.693 19.58.643 14.867.325c-1.271-.504-.917-.338-1.787-.062s-2.128-.534-3.299.193-2.19 3.301-2.135 3.764 1.438-2.253 2.894-2.97c1.079-.531 2.91.715 3.91.749s2.47 1.061 3.984 2.748c2.465 2.75 4.21 22.182 4.21 22.182s.238.154.139-1.417c-.247-3.844-1.043-12.023-1.56-14.406z" fill="url(#C)"/><path d="M22.903 34.258c-.302-.629-1.737-4.681-5.505-4.642-1.032-.179-.745-.117-1.426.042s-1.717-.16-2.619.215-1.61 1.582-1.549 1.789 1.054-1.077 2.186-1.458c.838-.282 2.347.212 3.146.189s2.011.384 3.287 1.09C22.498 32.633 24 39.308 24 39.308s-.38-3.558-1.097-5.051z" fill="url(#D)"/><path d="M5.471 27.631c-.053-.163 2.222-4.15 2.696-4.476s2.966 1.201 3.229 1.444 6.148 4.223 8.071 9.203c4.973 12.878 6.744 36.001 5.821 35.754s-2.083-22.119-6.884-35.428c-1.267-4.398-8.232-9.203-8.232-9.203s-1.373-.978-1.902-.651-2.749 3.52-2.801 3.357z" fill="url(#E)"/><path d="M20.198 54.023l-1.216.818c-.244.139-2.644.999-2.679.902s1.998-.87 2.206-1.057 1.382-1.127 1.382-1.127.42.394.308.464z" fill="url(#F)"/><path d="M22.906 45.926c.238-.596.563-2.351.696-2.752s.321-1.273.321-1.273l-.044-1.812-1.028 2.319c-.275.452-.895 1.919-1.064 2.712l-.807 3.672-1.107 4.643c-.039.133-.158.403-.158.403s.137.174.263.236.332-.105.425-.411l2.504-7.736z" fill="url(#G)"/><path d="M29.178 50.521l1.278.512c.255.087 2.778.627 2.816.566s-2.101-.545-2.32-.663l-1.452-.705s-.441.246-.323.29z" fill="url(#H)"/><path d="M26.331 45.447c-.249-.374-.592-1.474-.731-1.724s-.338-.797-.338-.797l.046-1.135 1.081 1.451c.289.284.941 1.202 1.12 1.7l.848 2.301 1.163 2.909a2.14 2.14 0 0 0 .165.252s-.143.109-.279.148-.347-.065-.445-.257l-2.631-4.848z" fill="url(#I)"/><path d="M0 37.416c-.061-.098 6.316-4.779 6.663-5.059s2.535.363 2.777.485 5.454 1.886 7.58 4.865c5.495 7.705 8.814 30.554 8.037 30.523s-3.455-22.15-8.859-30.16c-1.527-2.692-7.71-4.843-7.71-4.843s-1.222-.445-1.611-.156S.062 37.516 0 37.416z" fill="url(#J)"/><path d="M24.515 49.6c.013-.486-.008-.917-.034-1.009s-.145-.112-.012-.34c.047-.079-.373-5.464-.406-5.737s-.089-.438-.156-.673c-.02-.071-.055-.174-.061-.275s.016-.113.003-.179l-.325-2.287-.363-4.377s-.091-.27-.096-.36.017-.187.026-.235-.278-2.178-.349-2.914.038-1.102-.018-1.574l-.164-1.251s-.261-4.522.112-4.399.818 5.278.818 5.278l.117.975.908 3.804.073.282c.022.066-.032.376-.032.376l.623 4.512c.077.54.148 1.926.148 1.926s.093.24.049.316c-.017.03-.057.062-.066.118-.02.094-.003.215-.003.215l.688 6.293c.008.067.041.163.041.163s.071-.016.095.054-.001.114-.028.2l-.07.199c-.011.04.541 6.238.541 6.238l.04.289c.014.067-.076.369-.076.369l.159 2.757c.013.544-.13 1.887-.13 1.887s.063.249.01.32c-.019.027-.064.055-.08.11-.028.09-.025.213-.025.213l.04 5.255c.009.067.041.162.041.162s.073-.015.095.055-.001.115-.029.199l-.07.2c-.011.039.165 5.749.098 5.902s-1.076.299-1.076.299-.546.019-.586-.258.033-4.559.046-5.044-.007-.916-.035-1.009-.143-.111-.01-.34c.021-.035-.131-.987-.133-2.015-.003-1.28.139-2.701.139-2.855-.001-.277-.036-.444-.076-.686-.013-.073-.036-.179-.03-.279s.027-.111.022-.179c-.013-.209.029-1.536.03-2.226l.012-2.538s-.059-.281-.053-.37.037-.181.053-.23-.168-2.154-.155-2.895-.296-1.947-.281-2.433z" fill="url(#K)"/><path d="M25.238 48.977c.159 0 .299-.062.456-.062l.342-.01-.004-.205c.011-.04.037-.101.07-.199l.023-.069-.912.125-.807-.15c-.009.09.055.12.073.183.013.049.026.192.033.386.113-.016.223-.038.337-.04.123-.004.248.04.389.04z" fill="url(#L)"/><path d="M24.518 41.973c.155-.032.315-.095.473-.101.117-.004.216-.036.32-.06-.001-.014-.003-.021-.003-.021s-.017-.121.003-.215c.009-.056.05-.088.066-.118.013-.021.014-.054.011-.092l-1.537.247c.012.084.039.167.056.226l.112.408c.074-.043.151-.072.221-.112.137-.079.131-.133.279-.163z" fill="url(#M)"/><path d="M23.469 34.732c.062-.038-.071.024-.009-.007.075-.039.156-.027.236-.028.177-.004.33-.015.505.021.105.021.239-.02.358-.003l.034-.296-.892-.116-.633.066c.008.096.095.354.095.354l.008.066c.105.004.214-.008.3-.056z" fill="url(#N)"/><path d="M25.277 48.65l.783-.027a1.45 1.45 0 0 0 .044-.122c.027-.086.052-.129.028-.2-.02-.059-.075-.058-.091-.056-.144.107-.404.234-.792.186-.442-.054-.676-.137-.78-.184-.098.172-.061.226-.024.28.183.054.511.133.831.123z" fill="url(#O)"/><path d="M25.277 48.604c.323-.011.811-.054.826-.103.027-.086.052-.129.028-.2-.02-.059-.495.269-.883.222-.442-.054-.819-.2-.828-.172-.023.064-.016.103 0 .135.005.015.535.128.856.118z" fill="url(#P)"/><path d="M24.571 41.763a3.86 3.86 0 0 0 .741-.192c.012-.052.05-.084.065-.112.028-.046.003-.154-.019-.232-.144.099-.416.23-.853.232-.448 0-.538.032-.66.052v.054c.006.065.018.128.037.191.212.028.376.052.688.007z" fill="url(#Q)"/><path d="M24.565 41.716c.294-.042.797-.23.813-.258s.014-.093 0-.152c-.005-.027-.32.285-.862.244-.448-.036-.67-.008-.669.015.005.052.014.103.027.153.004.012.381.044.692-.002z" fill="url(#R)"/><path d="M24.587 34.51c.008-.076.012-.153.003-.181-.008-.021-.017-.057-.028-.098-.17-.026-.52-.066-.892-.031-.293.027-.399.006-.599.065-.003.031-.005.065-.003.097.001.043.023.124.045.201.136-.026.183.022.564-.053.458-.09.761-.042.912 0z" fill="url(#S)"/><path d="M24.592 34.419c.003-.04.003-.072-.003-.09l-.02-.066c-.003-.009-.518-.007-.89.028-.294.028-.615.04-.614.072s.014.09.031.149c.006.017.401-.043.78-.116.459-.09.716.039.716.024z" fill="url(#T)"/><path d="M25.754 67.032c.161 0 .302-.062.458-.062l.342-.01-.005-.205c.011-.039.039-.101.07-.2l.022-.066-.911.123-.808-.15c-.009.09.055.12.072.184.016.049.028.192.035.386l.336-.041c.123-.002.249.041.388.041z" fill="url(#U)"/><path d="M25.666 60.973c.157-.013.323-.06.482-.046.116.008.218-.012.325-.023l-.001-.02s-.003-.123.025-.213c.017-.055.062-.083.08-.11.015-.02.021-.052.021-.09l-1.712.047c.001.086.02.173.03.233l.063.419c.077-.035.158-.053.232-.087.147-.065.305-.096.455-.109z" fill="url(#V)"/><path d="M25.255 55.568l.193-.077c.078-.031.158-.008.238 0 .176.016.327.022.497.077.103.034.24.009.355.038v-.01s.051-.166.069-.279l-.872-.22-.837.066c-.004.095.053.363.053.363v.065c.104.016.215.017.304-.024z" fill="url(#W)"/><path d="M25.792 66.705l.784-.026.043-.123c.028-.084.052-.129.029-.199-.021-.059-.075-.057-.09-.055-.144.107-.403.233-.792.186-.441-.055-.677-.139-.78-.186-.099.172-.061.226-.024.282.183.052.512.133.83.122z" fill="url(#X)"/><path d="M25.792 66.658c.325-.009.812-.052.828-.103.028-.084.052-.129.029-.199-.021-.059-.494.27-.883.223-.441-.053-.819-.199-.829-.171-.021.064-.015.102 0 .135a3.51 3.51 0 0 0 .855.116z" fill="url(#Y)"/><path d="M25.742 60.771c.296-.01.573-.063.758-.107.019-.051.06-.078.078-.104.034-.043.021-.153.008-.233-.153.082-.44.181-.873.133-.445-.051-.697-.051-.82-.045-.004.018-.006.037-.006.055a.95.95 0 0 0 .013.193c.209.051.529.117.843.108z" fill="url(#Z)"/><path d="M25.741 60.724c.296-.009.818-.138.836-.164.023-.03.025-.09.019-.151-.002-.028-.352.246-.883.142-.444-.087-.826-.103-.826-.081-.003.051.001.105.008.154a3.84 3.84 0 0 0 .847.099z" fill="url(#P)"/><path d="M26.589 55.407c.017-.076.03-.151.024-.179-.006-.022-.011-.059-.018-.1a3.78 3.78 0 0 0-.881-.135 4.43 4.43 0 0 0-.803.069c-.007.031-.013.063-.014.095-.004.043.008.126.022.205l.766-.059c.466-.037.759.045.904.104z" fill="url(#a)"/><path d="M26.608 55.317c.006-.04.009-.073.006-.091s-.008-.04-.012-.068c-.002-.011-.514-.066-.886-.073-.296-.006-.816.038-.817.071a.85.85 0 0 0 .014.153c.002.016.601-.069.986-.099.467-.038.706.12.709.106z" fill="url(#Y)"/><path d="M16.308 61.728l-.653 1.228c-.107.242-.651 2.556-.549 2.574s.602-1.95.763-2.166.794-1.257.794-1.257-.301-.493-.355-.38z" fill="url(#b)"/><path d="M21.245 68.086c.375.471 1.116 3.339 1.344 3.664s.438.655.62 1.052c.169.365.078.372.302 1.637l-1.463-1.82c-.376-.333-1.332-2.873-1.692-3.536l-1.673-3.065-2.202-3.854c-.069-.108-.251-.32-.251-.32s.091-.188.198-.275.348.01.511.258l4.306 6.26z" fill="url(#c)"/><path d="M28.112 58.741l.718.957c.143.162 1.52 1.128 1.534 1.006s-1.156-.99-1.281-1.214l-.828-1.328s-.21.497-.143.579z" fill="url(#d)"/><path d="M26.101 48.907c-.165-.724-.445-2.863-.54-3.351l-.25-1.548-.003-2.216.624 2.796a28.54 28.54 0 0 1 .743 3.288l.654 4.476.875 5.657c.027.162.109.489.109.489s-.064.217-.133.299-.189-.116-.258-.487l-1.822-9.402z" fill="url(#e)"/><path d="M29.422 65.336c-.033.05-.259.486-.335.587s-.549 1.859-.601 1.793.264-1.76.305-1.894.311-.802.311-.802.352.267.319.316z" fill="url(#f)"/><path d="M27.967 59.681c-.088-.417-.537-1.639-.61-1.919s-.283-.886-.283-.886l-.536-1.279.041 1.566c.019.319.34 1.423.532 1.976l.876 2.559 1.06 3.236c.029.093.063.282.063.282a1.33 1.33 0 0 0 .217.159c.087.043.134-.077.073-.29l-1.433-5.405z" fill="url(#g)"/><path d="M22.87 29.157c-.137-1.334-.539-3.77-1.343-5.146-.298-.508-3.117-4.943-4.475-6.046s-2.57-2.246-4.435-2.541c0 0-2.855-.462-4.635-.182-.941.149-3.449 1.203-4.384 1.999-1.03.879-2.34 3.023-1.644 5.309s1.553 4.001 1.814 3.983-1.263-4.239-.998-5.307 1.092-3.056 2.707-4.013c.829-.491 2.968-.994 4.69-1.34l.778.157c1.023.241 1.807.187 4.237 1.744s5.737 6.12 6.612 8.662 1.292 6.692 1.292 6.692l-.215-3.971z" fill="url(#h)"/><path d="M37.123 13.221c-1-.595-3.436-1.136-4.293-1.099-1.622.071-4.014 1.072-4.014 1.072-1.563.646-2.362 1.993-3.297 3.328s-2.386 6.194-2.528 6.746c-.389 1.496.127 9.669.313 10.993.348-.058.572-.08.572-.08s-.631-5.875-.448-8.518 1.913-7.704 3.684-9.687 2.467-2.082 3.306-2.515c.211-.108.432-.211.644-.303 1.587.005 3.573.079 4.411.398 1.633.62 2.813 2.392 3.288 3.381s.112 5.389.344 5.357.588-1.866.673-4.225-1.553-4.192-2.656-4.848z" fill="url(#i)"/><path d="M33.901 15.272c-.767-.395-2.659-.714-3.331-.668-1.271.091-3.166.857-3.166.857-1.24.496-1.899 1.466-2.664 2.431s-2.022 4.429-2.147 4.821c-.341 1.065-.241 2.787-.128 3.716.07.587.466 2.737.466 2.737s-.355-2.891-.146-4.759 1.781-5.497 3.216-6.941 1.982-1.531 2.649-1.857l.512-.23c1.241-.036 2.792-.032 3.441.171 1.26.397 2.14 1.618 2.487 2.303s-.048 3.8.135 3.771.507-1.332.632-2.997-1.109-2.919-1.956-3.354z" fill="url(#h)"/><path d="M23.304 29.456c-.191-1.998-1.479-10.004-2.274-12.005-.292-.739-3.058-7.162-4.335-8.698s-2.428-3.147-4.121-3.419c0 0-2.595-.432-4.184.157-.838.311-3.045 2.132-3.844 3.421-.884 1.42-1.956 4.775-1.212 8.156s1.6 5.887 1.834 5.836-1.352-6.274-1.168-7.909.829-4.707 2.234-6.301c.722-.818 2.622-1.773 4.156-2.455a7.66 7.66 0 0 1 .708.165c.933.268 1.636.113 3.903 2.235s5.39 8.006 6.306 11.757 1.997 13.895 1.997 13.895.08-.029.413-.115c.007-1.199-.337-3.936-.413-4.719z" fill="url(#j)"/><path d="M26.913 8.361c-1.11.394-1.95 1.94-2.621 3.296s-1.679 6.585-1.783 7.201c-.287 1.673-.086 4.773.035 6.38l.959 9.02.269-.119c-.14-2.613-.759-9.577-.645-11.918.15-3.076 1.295-9.057 2.561-10.98s1.758-1.875 2.355-2.186 1.3-.467 1.3-.467l.675-.324c0 0-1.995-.296-3.103.098z" fill="url(#k)"/><path d="M34.104 21.539c.165.017.431-2.065.511-4.828s-1.063-5.316-1.837-6.351c-.701-.939-2.417-2.155-3.022-2.313-1.147-.3-2.843.315-2.843.315s3.646.978 4.697 2.004c1.148 1.118 1.968 3.49 2.296 4.769s.035 6.388.198 6.405z" fill="url(#l)"/><path d="M5.124 40.563c-.053-.12 2.221-3.053 2.697-3.293s2.964.882 3.229 1.063 6.147 3.107 8.071 6.771c4.609 8.782 6.532 25.48 6.046 27.695-.04.175-.158.014-.224.001-.922-.182-2.083-17.665-6.884-27.456-1.266-3.237-8.232-6.771-8.232-6.771s-1.372-.72-1.901-.48-2.748 2.59-2.801 2.471z" fill="url(#m)"/><path d="M46.432 46.93c.058-.094-1.038-1.12-1.54-1.319-1.007-.402-2.495.06-2.776.2s-6.551 1.93-8.938 5.328c-5.236 7.451-7.47 21.873-7.019 21.921.084.008.757.078.861-.663.656-4.642 2.311-14.374 6.497-20.608 1.57-3.255 8.071-5.293 8.517-5.456s1.519-.535 2.085-.348 2.259 1.038 2.313.945z" fill="url(#n)"/><path d="M11.173 37.379c-.179.045-1.973-5.474-2.558-8.345s.269-5.609.944-6.82c.61-1.098 2.343-2.202 2.986-2.47 1.218-.507 3.212-.151 3.212-.151s-4.27 1.364-4.809 3.339-.403 6.326-.538 7.717.942 6.686.763 6.73z" fill="url(#h)"/><path d="M15.756 19.594c1.301.224 2.191 1.589 3.178 2.89s3.38 6.663 3.607 7.29c.619 1.699 1.003 4.787 1.159 6.484l.499 5.208c-.183.061-.354.045-.354.045l-1.277-9.157c-.718-3.185-3.186-8.167-4.936-9.961s-2.287-1.661-3.006-1.885-1.524-.269-1.524-.269l-.808-.225c0 0 2.16-.646 3.462-.422z" fill="url(#o)"/><path d="M23.245 67.213l-.201-2.346.505-6.498c.027-.909-.083-3.781-.194-4.712s-.611-4.111-.671-3.91.477 3.185.509 3.895-.05 4.689-.14 5.455l-.318 4.673-.118 1.436.628 2.007z" fill="url(#p)"/><path d="M11.715 50.557l.232 2.649c.082.514.997 4.654 1.101 4.696s-.896-4.148-.913-4.606l-.214-2.655s-.241-.322-.206-.083z" fill="url(#q)"/><path d="M18.695 59.553c.529.651 1.929 2.773 2.265 3.22l1.657 2.433.404 1.154-2.069-2.467-2.443-3.245-2.861-4.294-3.589-5.38c-.107-.151-.355-.441-.355-.441s-.006-.277.045-.411.299-.011.549.334 5.869 8.448 6.396 9.097z" fill="url(#r)"/><path d="M24.446 73.227c.153-.231-.85-4.673-.85-4.673l-.432-2.023c-.057-.239-.971-1.156-1.367-1.608s-2.323-2.945-2.265-2.862l3.012 4.479c.124.205 1.064 7.049 1.131 7.172s.617-.253.77-.483z" fill="url(#s)"/><path d="M29.015 68.578l.376-2.136.016-5.977c.044-.834.372-3.458.551-4.305s.906-3.73.948-3.544-.408 2.839-.494 3.488l-.584 5.053-.056 4.297.021.877-.777 2.247z" fill="url(#t)"/><path d="M41.402 53.571c.126.195 1.542 1.788 1.805 2.212s2.049 3.68 1.824 3.923c-.068.073-1.936-3.53-2.215-3.882l-1.504-1.9s-.035-.55.09-.353z" fill="url(#u)"/><path d="M33.979 61.814c-.558.567-2.066 2.432-2.424 2.824l-1.782 2.136-.477 1.034 2.18-2.144 2.598-2.837 3.081-3.776 3.865-4.729c.112-.133.374-.385.374-.385s.028-.252-.011-.378-.286-.026-.553.275l-6.853 7.98z" fill="url(#v)"/><path d="M27.834 72.922l.741-1.749.571-3.216c.074-.217 1.022-1.004 1.439-1.398s2.459-2.57 2.397-2.495l-3.24 3.935c-.136.18-1.462 5.587-1.535 5.696s-.372-.772-.372-.772z" fill="url(#w)"/><path d="M23.557 34.246c.014-1.186-2.018-12.549 7.133-17.046 1.825-1.063 1.326-.749 2.707-1.026s3.124-1.557 5.061-1.673 4.045 1.19 4.059 1.557-2.673-.844-5.043-.563c-1.756.207-4.276 2.116-5.792 2.692s-3.533 2.127-5.472 4.182c-3.16 3.349-2.023 11.806-2.023 11.806s-.371-.023-.631.072z" fill="url(#x)"/><path d="M22.566 21.345c.124-1.156.111-8.305 6.137-10.424 1.546-.877 1.122-.616 2.297-.761s2.647-1.242 4.298-1.18 3.466 1.536 3.483 1.896-2.291-1.071-4.311-1.013c-1.495.045-3.621 1.687-4.908 2.114s-2.986 1.764-4.617 3.603c-2.655 2.995-1.257 14.278-1.257 14.278s-1.416-5.77-1.122-8.514z" fill="url(#y)"/><path d="M21.572 16.638c.035-1.195-.427-8.643 4.698-10.47 1.293-.817.941-.57 1.957-.647s2.231-1.127 3.677-.958 3.119 1.818 3.157 2.194-2.065-1.259-3.824-1.325c-1.302-.049-3.053 1.529-4.149 1.893s-2.496 1.648-3.802 3.462c-2.128 2.953-.199 14.791-.199 14.791s-1.599-6.099-1.515-8.938z" fill="url(#z)"/><path d="M20.109 18.285c-.475-1.054-3.044-7.917-6.661-7.373-1.048-.182-.753-.112-1.361.252s-1.7-.061-2.46.706-1.087 2.953-.966 3.306.7-2.005 1.677-2.812c.724-.597 2.323.071 3.085-.07s2.05.415 3.484 1.481c2.338 1.739 5.74 13.155 5.74 13.155s-1.409-6.138-2.537-8.644z" fill="url(#AA)"/><path d="M23.209 73.559c-.422-.757-2.639-5.724-6.25-5.147-1.03-.083-.741-.046-1.361.252s-1.684.037-2.472.64-1.22 2.241-1.116 2.498.789-1.52 1.796-2.165c.746-.478 2.298-.059 3.06-.199s1.564.257 2.936.98c2.233 1.178 2.728 4.333 2.728 4.333s1.677.613.679-1.191z" fill="url(#AB)"/><path d="M25.277 73.017c.133-.862.483-6.301 4.22-7.085.974-.455.706-.314 1.421-.263s1.657-.581 2.648-.306 2.008 1.644 2.002 1.921-1.326-1.13-2.546-1.363c-.903-.172-2.266.785-3.06.933s-1.433.813-2.507 1.987c-1.75 1.914-1.08 5.039-1.08 5.039s-1.413 1.184-1.098-.863z" fill="url(#AC)"/><path d="M27.328 73.993c.174-.524.826-3.803 4.298-4.5.921-.331.667-.23 1.319-.243s1.553-.449 2.445-.345 1.742.863 1.718 1.027-1.145-.595-2.249-.66c-.818-.049-2.124.608-2.863.745s-1.363.573-2.419 1.342c-1.72 1.253-1.297 3.084-1.297 3.084s-1.366.795-.953-.451z" fill="url(#AD)"/><path d="M32.263 19.353c-.561-.67-1.921-1.205-2.408-1.306-.923-.194-1.546-.068-2.153.315s-1.453 1.378-1.997 2.383-1.603 4.942-1.689 5.395c-.237 1.23-.267 3.779-.176 4.951.059.741.681 3.107.681 3.107s-.348-4.052-.218-6.302 1.286-5.938 2.311-7.373 1.423-1.41 1.905-1.651c.178-.09.366-.163.537-.221.917.253 1.979.683 2.308 1.363.616 1.273 1.038 4.244 1.298 5.172s.126 4.655.258 4.664.749-3.96.821-5.982-.857-3.774-1.477-4.513z" fill="url(#m)"/><path d="M20.117 57.302c.05.046.393.452.507.544s.831 1.73.911 1.666-.571-1.94-.633-2.065-.302-.44-.302-.44-.533.248-.483.294z" fill="url(#AE)"/><path d="M22.312 52.035c.133-.388.813-1.524.923-1.784s.428-.825.428-.825l.813-1.189s.889-.113.862.181-1.438 2.599-1.729 3.114l-1.327 2.379-1.61 3.009c-.042.087-.094.264-.094.264s-.197.109-.329.148-.201-.071-.111-.27l2.176-5.026z" fill="url(#AF)"/><path d="M25.786 36.633c.342-.617 1.558-4.776 5.543-4.961 1.08-.241.781-.162 1.51-.043s1.806-.262 2.782.059 1.796 1.483 1.742 1.695-1.178-1.013-2.396-1.327c-.902-.232-2.468.351-3.314.376s-2.104.503-3.408 1.284c-2.126 1.272-2.918 7.489-2.918 7.489s-.509-2.827.46-4.571z" fill="url(#AG)"/><path d="M23.746 34.188c-.117-3.278 1.013-6.921 6.79-8.696 1.514-.703 1.098-.495 2.199-.642s2.568-1.012 4.092-1.021 3.065 1.023 3.048 1.288-2.022-.716-3.898-.604c-1.389.083-3.511 1.373-4.742 1.734s-2.932 1.41-4.613 2.829c-2.737 2.313-2.061 5.154-2.061 5.154s-.454-.043-.815-.043z" fill="url(#AH)"/><path d="M26.874 52.032c.138-1.055.698-7.818 3.111-8.036.643-.372.465-.249.914-.038s1.083-.391 1.694.157 1.169 2.478 1.146 2.824-.769-1.69-1.525-2.233c-.56-.402-1.481.523-1.993.544s-1.253.782-2.006 2.037c-1.225 2.046-1.599 13.124-1.599 13.124s-.07-5.874.257-8.38z" fill="url(#AI)"/></g></symbol></svg>